<?xml version="1.0" encoding="UTF-8" standalone="no"?>
<!-- Created with Inkscape (http://www.inkscape.org/) -->

<svg
   width="383.99991"
   height="804.11835"
   viewBox="0 0 101.59998 212.7563"
   version="1.1"
   id="svg1"
   inkscape:version="1.4.2 (f4327f4, 2025-05-13)"
   sodipodi:docname="CTP500_8BitToDo_Export.svg"
   inkscape:export-filename="CTP500_8BitToDo.png"
   inkscape:export-xdpi="96"
   inkscape:export-ydpi="96"
   xmlns:inkscape="http://www.inkscape.org/namespaces/inkscape"
   xmlns:sodipodi="http://sodipodi.sourceforge.net/DTD/sodipodi-0.dtd"
   xmlns="http://www.w3.org/2000/svg"
   xmlns:svg="http://www.w3.org/2000/svg">
  <sodipodi:namedview
     id="namedview1"
     pagecolor="#ffffff"
     bordercolor="#000000"
     borderopacity="0.25"
     inkscape:showpageshadow="2"
     inkscape:pageopacity="0.0"
     inkscape:pagecheckerboard="0"
     inkscape:deskcolor="#d1d1d1"
     inkscape:document-units="mm"
     showguides="true"
     inkscape:zoom="0.53858859"
     inkscape:cx="226.51798"
     inkscape:cy="303.57123"
     inkscape:window-width="1920"
     inkscape:window-height="1057"
     inkscape:window-x="892"
     inkscape:window-y="218"
     inkscape:window-maximized="1"
     inkscape:current-layer="layer1">
    <sodipodi:guide
       position="-189.9938,174.38309"
       orientation="1,0"
       id="guide46"
       inkscape:locked="false" />
    <inkscape:page
       x="0"
       y="0"
       width="101.59998"
       height="212.7563"
       id="page63"
       margin="0"
       bleed="0"
       inkscape:export-filename="CTP500_8BitToDo.jpg"
       inkscape:export-xdpi="96"
       inkscape:export-ydpi="96" />
    <sodipodi:guide
       position="-166.68253,151.59549"
       orientation="0,-1"
       id="guide67"
       inkscape:locked="false" />
    <sodipodi:guide
       position="-82.756955,197.282"
       orientation="0,-1"
       id="guide106"
       inkscape:locked="false" />
    <sodipodi:guide
       position="71.731582,85.255042"
       orientation="0,-1"
       id="guide108"
       inkscape:locked="false" />
    <sodipodi:guide
       position="2.5805202,83.209601"
       orientation="1,0"
       id="guide109"
       inkscape:locked="false" />
  </sodipodi:namedview>
  <defs
     id="defs1" />
  <g
     inkscape:label="Layer 1"
     inkscape:groupmode="layer"
     id="layer1"
     transform="translate(-289.0938,-7.0559864)">
    <rect
       style="fill:#ffffff;stroke-width:0.264776;-inkscape-stroke:none"
       id="rect4"
       width="101.59995"
       height="212.75632"
       x="289.09381"
       y="7.0559864" />
    <path
       style="font-size:7.32298px;font-family:'Press Start 2P';-inkscape-font-specification:'Press Start 2P';text-align:center;text-anchor:middle;stroke-width:0.518951;stroke-miterlimit:22.9256;stroke-dasharray:2.0758, 4.15161"
       d="m 300.99042,13.463594 v -0.915373 h -0.91537 v -1.830745 h 0.91537 V 9.8021039 h -0.91537 v -1.830745 h 0.91537 V 7.0559864 h 3.66149 v 0.9153725 h 0.91538 v 1.830745 h -0.91538 v 0.9153721 h 1.83075 v 1.830745 h -0.91537 v 0.915373 z m 1.83075,-3.6614901 h 1.83074 v -1.830745 h -2.74611 v 0.9153725 h 0.91537 z m -1.83075,2.7461171 h 3.66149 v -0.915372 h -1.83074 v -0.915373 h -1.83075 z m 7.32298,-1.830745 V 9.8021039 h 5.49224 v 0.9153721 z m 6.40761,2.746118 V 7.0559864 h 5.49224 v 0.9153725 h 0.91537 v 1.830745 h -0.91537 v 0.9153721 h 0.91537 v 1.830745 h -0.91537 v 0.915373 z m 1.83075,-3.6614901 h 2.74611 v -1.830745 h -2.74611 z m 0,2.7461171 h 2.74611 v -1.830745 h -2.74611 z m 8.23835,-4.5768621 V 7.0559864 h 1.83074 v 0.9153725 z m -1.83075,5.4922351 v -0.915373 h 1.83075 V 9.8021039 h -0.91537 V 8.8867314 h 2.74611 v 3.6614896 h 1.83075 v 0.915373 z m 9.15373,0 V 9.8021039 h -1.83075 V 8.8867314 h 1.83075 v -1.830745 h 1.83074 v 1.830745 h 1.83075 v 0.9153725 h -1.83075 v 3.6614901 z m 14.64596,0 V 7.9713589 H 344.9283 V 7.0559864 h 5.49224 v 0.9153725 h -1.83075 v 5.4922351 z m 5.49223,0 v -0.915373 h -0.91537 V 9.8021039 h 0.91537 V 8.8867314 h 4.57687 v 0.9153725 h 0.91537 v 2.7461171 h -0.91537 v 0.915373 z m 0.91538,-0.915373 h 2.74611 V 9.8021039 h -2.74611 z m 12.81521,0.915373 V 7.0559864 h 4.57687 v 0.9153725 h 0.91537 v 0.9153725 h 0.91537 v 2.7461176 h -0.91537 v 0.915372 h -0.91537 v 0.915373 z m 1.83075,-0.915373 h 1.83074 v -0.915372 h 0.91538 V 8.8867314 h -0.91538 V 7.9713589 h -1.83074 z m 6.4076,0.915373 v -0.915373 h -0.91537 V 9.8021039 h 0.91537 V 8.8867314 h 4.57686 v 0.9153725 h 0.91538 v 2.7461171 h -0.91538 v 0.915373 z m 0.91537,-0.915373 h 2.74612 V 9.8021039 h -2.74612 z"
       id="text107"
       aria-label="8-Bit To Do" />
    <path
       id="rect84"
       style="fill:#969696;stroke-width:1.37298;stroke-miterlimit:22.9256"
       d="m 294.47751,72.956863 h 10.37837 v 10.378371 h -10.37837 z" />
    <path
       id="rect85"
       style="fill:#969696;stroke-width:1.37298;stroke-miterlimit:22.9256"
       d="m 294.47751,88.524422 h 10.37837 v 10.37837 h -10.37837 z" />
    <path
       id="rect89"
       style="fill:#969696;stroke-width:1.37298;stroke-miterlimit:22.9256"
       d="m 294.47751,104.09198 h 10.37837 v 10.37837 h -10.37837 z" />
    <path
       id="rect106"
       style="fill:#969696;stroke-width:1.37298;stroke-miterlimit:22.9256"
       d="m 310.04514,72.956863 h 79.4983 v 10.378371 h -79.4983 z" />
    <path
       id="rect107"
       style="fill:#969696;stroke-width:1.37298;stroke-miterlimit:22.9256"
       d="m 310.04514,88.524422 h 79.4983 v 10.37837 h -79.4983 z" />
    <path
       id="rect108"
       style="fill:#969696;stroke-width:1.37298;stroke-miterlimit:22.9256"
       d="m 310.04514,104.09198 h 79.4983 v 10.37837 h -79.4983 z" />
    <path
       style="font-size:7.32252px;font-family:'Press Start 2P';-inkscape-font-specification:'Press Start 2P';text-align:center;text-anchor:middle;stroke-width:0.518962;stroke-miterlimit:22.9256;stroke-dasharray:2.07584, 4.1517"
       d="m 297.33164,64.735694 v -0.915315 h -0.91532 v -0.915315 h 1.83063 v 0.915315 h 2.74595 v -1.83063 h -2.74595 v -0.915315 h 0.91532 v -0.915315 h 0.91531 v -0.915315 h -2.74594 v -0.915315 h 5.49189 v 0.915315 h -0.91532 v 0.915315 h -0.91531 v 0.915315 h 0.91531 v 0.915315 h 0.91532 v 1.83063 h -0.91532 v 0.915315 z m 13.72972,0 v -6.407205 h 5.49189 v 0.915315 h 0.91532 v 1.83063 h -0.91532 v 0.915315 h 0.91532 v 1.83063 h -0.91532 v 0.915315 z m 1.83063,-3.66126 h 2.74595 v -1.83063 h -2.74595 z m 0,2.745945 h 2.74595 v -1.83063 h -2.74595 z m 8.23784,-4.576575 v -0.915315 h 1.83063 v 0.915315 z m -1.83063,5.49189 v -0.915315 h 1.83063 v -2.745945 h -0.91532 v -0.915315 h 2.74595 v 3.66126 h 1.83063 v 0.915315 z m 7.32252,0.915315 v -0.915315 h 3.66126 v -0.915315 h -3.66126 v -0.915315 h -0.91532 v -1.83063 h 0.91532 v -0.915315 h 5.49189 v 4.576575 h -0.91532 v 0.915315 z m 0.91531,-2.745945 h 2.74595 v -1.83063 h -2.74595 z m 15.56036,1.83063 v -5.49189 h -1.83063 v -0.915315 h 5.49189 v 0.915315 h -1.83063 v 5.49189 z m 4.57657,0 v -6.407205 h 1.83063 v 1.83063 h 3.66126 v 0.915315 h 0.91531 v 3.66126 h -1.83063 v -3.66126 h -2.74594 v 3.66126 z m 10.06846,-5.49189 v -0.915315 h 1.83063 v 0.915315 z m -1.83063,5.49189 v -0.915315 h 1.83063 v -2.745945 h -0.91531 v -0.915315 h 2.74594 v 3.66126 h 1.83063 v 0.915315 z m 6.40721,0 v -4.576575 h 5.49189 v 0.915315 h 0.91532 v 3.66126 h -1.83063 v -3.66126 h -2.74595 v 3.66126 z m 8.23783,0.915315 v -0.915315 h 3.66126 v -0.915315 h -3.66126 v -0.915315 h -0.91531 v -1.83063 h 0.91531 v -0.915315 h 5.49189 v 4.576575 h -0.91531 v 0.915315 z m 0.91532,-2.745945 h 2.74594 v -1.83063 h -2.74594 z m 5.49189,1.83063 v -0.915315 h 4.57657 v -0.915315 h -3.66126 v -0.915315 h -0.91531 v -0.915315 h 0.91531 v -0.915315 h 4.57658 v 0.915315 h -3.66126 v 0.915315 h 3.66126 v 0.915315 h 0.91531 v 0.915315 h -0.91531 v 0.915315 z"
       id="text108"
       aria-label="3 Big Things" />
    <path
       style="font-size:7.32252px;font-family:'Press Start 2P';-inkscape-font-specification:'Press Start 2P';stroke-width:0.518951;stroke-miterlimit:22.9256;stroke-dasharray:2.0758, 4.15161"
       d="m 296.41635,31.164542 v -6.407205 h 4.57658 v 0.915315 h 0.91531 v 0.915315 h 0.91532 v 2.745945 h -0.91532 v 0.915315 h -0.91531 v 0.915315 z m 1.83063,-0.915315 h 1.83063 v -0.915315 h 0.91532 v -2.745945 h -0.91532 v -0.915315 h -1.83063 z m 6.40721,0.915315 v -0.915315 h -0.91532 v -0.915315 h 0.91532 v -0.915315 h 3.66126 v -0.915315 h -3.66126 v -0.915315 h 4.57657 v 0.915315 h 0.91532 v 3.66126 z m 0.91531,-0.915315 h 2.74595 v -0.915315 h -2.74595 z m 8.23784,0.915315 v -3.66126 h -1.83063 v -0.915315 h 1.83063 v -1.83063 h 1.83063 v 1.83063 h 1.83063 v 0.915315 h -1.83063 v 3.66126 z m 5.49189,0 v -0.915315 h -0.91532 v -2.745945 h 0.91532 v -0.915315 h 4.57657 v 0.915315 h 0.91532 v 1.83063 h -4.57658 v 0.915315 h 3.66126 v 0.915315 z m 0.91531,-2.745945 h 2.74595 v -0.915315 h -2.74595 z m 7.32252,-0.915315 v -1.83063 h 1.83063 v 1.83063 z m 0,2.745945 v -1.83063 h 1.83063 v 1.83063 z"
       id="text109"
       aria-label="Date:" />
    <path
       style="font-size:7.32252px;font-family:'Press Start 2P';-inkscape-font-specification:'Press Start 2P';stroke-width:0.518951;stroke-miterlimit:22.9256;stroke-dasharray:2.0758, 4.15161"
       d="m 296.41635,47.950118 v -6.407205 h 1.83063 v 0.915315 h 0.91532 v 0.915315 h 0.91531 v -0.915315 h 0.91532 v -0.915315 h 1.83063 v 6.407205 h -1.83063 v -3.66126 h -0.91532 v 1.83063 h -0.91531 v -1.83063 h -0.91532 v 3.66126 z m 8.23784,0 v -0.915315 h -0.91532 v -2.745945 h 0.91532 v -0.915315 h 4.57657 v 0.915315 h 0.91532 v 2.745945 h -0.91532 v 0.915315 z m 0.91531,-0.915315 h 2.74595 v -2.745945 h -2.74595 z m 6.40721,0.915315 v -0.915315 h -0.91532 v -2.745945 h 0.91532 v -0.915315 h 4.57657 v 0.915315 h 0.91532 v 2.745945 h -0.91532 v 0.915315 z m 0.91531,-0.915315 h 2.74595 v -2.745945 h -2.74595 z m 6.40721,0.915315 v -0.915315 h -0.91532 v -2.745945 h 0.91532 v -0.915315 h 3.66126 v -1.83063 h 1.83063 v 6.407205 z m 0.91531,-0.915315 h 2.74595 v -2.745945 h -2.74595 z m 7.32252,-2.745945 v -1.83063 h 1.83063 v 1.83063 z m 0,2.745945 v -1.83063 h 1.83063 v 1.83063 z"
       id="text110"
       aria-label="Mood:" />
    <g
       id="rect113"
       style="opacity:1">
      <path
         style="baseline-shift:baseline;display:inline;overflow:visible;vector-effect:none;fill:#ffffff;stroke-miterlimit:22.9256;enable-background:accumulate;stop-color:#000000;stop-opacity:1"
         d="m 292.36081,70.840195 h 10.37837 v 10.37837 h -10.37837 z"
         id="path127" />
      <path
         style="baseline-shift:baseline;display:inline;overflow:visible;vector-effect:none;stroke-miterlimit:22.9256;enable-background:accumulate;stop-color:#000000;stop-opacity:1"
         d="m 291.67383,70.154297 v 11.75 h 11.75195 v -11.75 z m 1.37304,1.373047 h 9.00586 v 9.003906 h -9.00586 z"
         id="path128" />
    </g>
    <g
       id="rect115"
       style="opacity:1">
      <path
         style="baseline-shift:baseline;display:inline;overflow:visible;vector-effect:none;fill:#ffffff;stroke-miterlimit:22.9256;enable-background:accumulate;stop-color:#000000;stop-opacity:1"
         d="m 292.36081,86.407753 h 10.37837 v 10.37837 h -10.37837 z"
         id="path129" />
      <path
         style="baseline-shift:baseline;display:inline;overflow:visible;vector-effect:none;stroke-miterlimit:22.9256;enable-background:accumulate;stop-color:#000000;stop-opacity:1"
         d="m 291.67383,85.720703 v 11.751953 h 11.75195 V 85.720703 Z m 1.37304,1.373047 h 9.00586 v 9.005859 h -9.00586 z"
         id="path130" />
    </g>
    <g
       id="rect117"
       style="opacity:1">
      <path
         style="baseline-shift:baseline;display:inline;overflow:visible;vector-effect:none;fill:#ffffff;stroke-miterlimit:22.9256;enable-background:accumulate;stop-color:#000000;stop-opacity:1"
         d="m 292.36081,101.9753 h 10.37837 v 10.37837 h -10.37837 z"
         id="path131" />
      <path
         style="baseline-shift:baseline;display:inline;overflow:visible;vector-effect:none;stroke-miterlimit:22.9256;enable-background:accumulate;stop-color:#000000;stop-opacity:1"
         d="m 291.67383,101.28906 v 11.75196 h 11.75195 v -11.75196 z m 1.37304,1.37305 h 9.00586 v 9.00586 h -9.00586 z"
         id="path132" />
    </g>
    <g
       id="rect119"
       style="opacity:1">
      <path
         style="baseline-shift:baseline;display:inline;overflow:visible;vector-effect:none;fill:#ffffff;stroke-miterlimit:22.9256;enable-background:accumulate;stop-color:#000000;stop-opacity:1"
         d="m 307.92844,70.840195 h 79.4983 v 10.37837 h -79.4983 z"
         id="path133" />
      <path
         style="baseline-shift:baseline;display:inline;overflow:visible;vector-effect:none;stroke-miterlimit:22.9256;enable-background:accumulate;stop-color:#000000;stop-opacity:1"
         d="m 307.24219,70.154297 v 11.75 h 80.87109 v -11.75 z m 1.37304,1.373047 h 78.125 v 9.003906 h -78.125 z"
         id="path134" />
    </g>
    <g
       id="rect121"
       style="opacity:1">
      <path
         style="baseline-shift:baseline;display:inline;overflow:visible;vector-effect:none;fill:#ffffff;stroke-miterlimit:22.9256;enable-background:accumulate;stop-color:#000000;stop-opacity:1"
         d="m 307.92844,86.407753 h 79.4983 v 10.37837 h -79.4983 z"
         id="path135" />
      <path
         style="baseline-shift:baseline;display:inline;overflow:visible;vector-effect:none;stroke-miterlimit:22.9256;enable-background:accumulate;stop-color:#000000;stop-opacity:1"
         d="m 307.24219,85.720703 v 11.751953 h 80.87109 V 85.720703 Z m 1.37304,1.373047 h 78.125 v 9.005859 h -78.125 z"
         id="path136" />
    </g>
    <g
       id="rect123"
       style="opacity:1">
      <path
         style="baseline-shift:baseline;display:inline;overflow:visible;vector-effect:none;fill:#ffffff;stroke-miterlimit:22.9256;enable-background:accumulate;stop-color:#000000;stop-opacity:1"
         d="m 307.92844,101.9753 h 79.4983 v 10.37837 h -79.4983 z"
         id="path137" />
      <path
         style="baseline-shift:baseline;display:inline;overflow:visible;vector-effect:none;stroke-miterlimit:22.9256;enable-background:accumulate;stop-color:#000000;stop-opacity:1"
         d="m 307.24219,101.28906 v 11.75196 h 80.87109 v -11.75196 z m 1.37304,1.37305 h 78.125 v 9.00586 h -78.125 z"
         id="path138" />
    </g>
    <path
       style="font-size:7.32252px;font-family:'Press Start 2P';-inkscape-font-specification:'Press Start 2P';text-align:center;text-anchor:middle;stroke-width:0.518962;stroke-miterlimit:22.9256;stroke-dasharray:2.07584, 4.1517"
       d="m 290.00912,129.13924 v -0.91532 h -0.91532 v -0.91531 h 1.83063 v 0.91531 h 2.74595 v -1.83063 h -2.74595 v -0.91531 h 0.91532 v -0.91532 h 0.91531 v -0.91531 h -2.74594 v -0.91532 h 5.49189 v 0.91532 h -0.91532 v 0.91531 h -0.91531 v 0.91532 h 0.91531 v 0.91531 h 0.91532 v 1.83063 h -0.91532 v 0.91532 z m 14.64504,0 v -0.91532 h -0.91532 v -0.91531 h 1.83063 v 0.91531 h 2.74595 v -1.83063 h -3.66126 v -0.91531 h -0.91532 v -1.83063 h 0.91532 v -0.91532 h 4.57657 v 0.91532 h 0.91532 v 0.91531 h -1.83063 v -0.91531 h -2.74595 v 1.83063 h 3.66126 v 0.91531 h 0.91532 v 1.83063 h -0.91532 v 0.91532 z m 6.4072,0 v -4.57658 h 5.49189 v 0.91532 h 0.91532 v 3.66126 h -1.83063 v -3.66126 h -0.91532 v 3.66126 h -1.83063 v -3.66126 h -0.91531 v 3.66126 z m 8.23784,0 v -0.91532 h -0.91532 v -0.91531 h 0.91532 v -0.91532 h 3.66126 v -0.91531 h -3.66126 v -0.91532 h 4.57657 v 0.91532 h 0.91532 v 3.66126 z m 0.91531,-0.91532 h 2.74595 v -0.91531 h -2.74595 z m 6.40721,0.91532 v -0.91532 h 1.83063 v -4.57657 h -0.91532 v -0.91532 h 2.74595 v 5.49189 h 1.83063 v 0.91532 z m 7.32252,0 v -0.91532 h 1.83063 v -4.57657 h -0.91532 v -0.91532 h 2.74595 v 5.49189 h 1.83063 v 0.91532 z m 16.47567,0 v -5.49189 h -1.83063 v -0.91532 h 5.49189 v 0.91532 h -1.83063 v 5.49189 z m 4.57657,0 v -6.40721 h 1.83063 v 1.83063 h 3.66126 v 0.91532 h 0.91532 v 3.66126 h -1.83063 v -3.66126 h -2.74595 v 3.66126 z m 10.06846,-5.49189 v -0.91532 h 1.83063 v 0.91532 z m -1.83063,5.49189 v -0.91532 h 1.83063 v -2.74594 h -0.91531 v -0.91532 h 2.74594 v 3.66126 h 1.83063 v 0.91532 z m 6.40721,0 v -4.57658 h 5.49189 v 0.91532 h 0.91531 v 3.66126 h -1.83063 v -3.66126 h -2.74594 v 3.66126 z m 8.23784,0.91531 v -0.91531 h 3.66126 v -0.91532 h -3.66126 v -0.91531 h -0.91532 v -1.83063 h 0.91532 v -0.91532 h 5.49189 v 4.57658 h -0.91532 v 0.91531 z m 0.91531,-2.74594 h 2.74595 v -1.83063 h -2.74595 z m 5.49189,1.83063 v -0.91532 h 4.57657 v -0.91531 h -3.66126 v -0.91532 h -0.91531 v -0.91531 h 0.91531 v -0.91532 h 4.57658 v 0.91532 h -3.66126 v 0.91531 h 3.66126 v 0.91532 h 0.91531 v 0.91531 h -0.91531 v 0.91532 z"
       id="text126"
       aria-label="3 Small Things" />
    <g
       id="text146"
       style="font-style:italic;font-weight:bold;font-size:7.32252px;font-family:Arial;-inkscape-font-specification:'Arial Bold Italic';text-align:center;text-anchor:middle;stroke-width:0.518961;stroke-miterlimit:22.9256;stroke-dasharray:2.07584, 4.1517"
       aria-label="You can do&#10;this!">
      <path
         style="font-style:normal;font-weight:normal;font-family:'Press Start 2P';-inkscape-font-specification:'Press Start 2P';stroke-width:0.518962"
         d="m 306.48479,193.5428 v -2.74595 h -0.91532 v -0.91531 h -0.91531 v -2.74595 h 1.83063 v 2.74595 h 1.83063 v -2.74595 h 1.83063 v 2.74595 h -0.91532 v 0.91531 h -0.91531 v 2.74595 z m 5.49189,0 v -0.91532 h -0.91532 v -2.74594 h 0.91532 v -0.91532 h 4.57657 v 0.91532 h 0.91532 v 2.74594 h -0.91532 v 0.91532 z m 0.91531,-0.91532 h 2.74595 v -2.74594 h -2.74595 z m 6.40721,0.91532 v -0.91532 h -0.91532 v -3.66126 h 1.83063 v 3.66126 h 2.74595 v -3.66126 h 1.83063 v 4.57658 z m 14.64504,0 v -0.91532 h -0.91532 v -2.74594 h 0.91532 v -0.91532 h 5.49189 v 0.91532 h -4.57658 v 2.74594 h 4.57658 v 0.91532 z m 7.32251,0 v -0.91532 h -0.91531 v -0.91531 h 0.91531 v -0.91532 h 3.66126 v -0.91531 h -3.66126 v -0.91532 h 4.57658 v 0.91532 h 0.91531 v 3.66126 z m 0.91532,-0.91532 h 2.74594 v -0.91531 h -2.74594 z m 5.49189,0.91532 v -4.57658 h 5.49189 v 0.91532 h 0.91532 v 3.66126 h -1.83063 v -3.66126 h -2.74595 v 3.66126 z m 15.56035,0 v -0.91532 H 362.319 v -2.74594 h 0.91531 v -0.91532 h 3.66126 v -1.83063 h 1.83063 v 6.40721 z m 0.91532,-0.91532 h 2.74594 v -2.74594 h -2.74594 z m 6.40721,0.91532 v -0.91532 h -0.91532 v -2.74594 h 0.91532 v -0.91532 h 4.57657 v 0.91532 h 0.91532 v 2.74594 h -0.91532 v 0.91532 z m 0.91531,-0.91532 h 2.74595 v -2.74594 h -2.74595 z"
         id="path1" />
      <path
         style="font-style:normal;font-weight:normal;font-family:'Press Start 2P';-inkscape-font-specification:'Press Start 2P';stroke-width:0.518962"
         d="m 324.79109,204.33799 v -3.66126 h -1.83063 v -0.91531 h 1.83063 v -1.83063 h 1.83063 v 1.83063 h 1.83063 v 0.91531 h -1.83063 v 3.66126 z m 4.57657,0 v -6.4072 h 1.83063 v 1.83063 h 3.66126 v 0.91531 h 0.91532 v 3.66126 h -1.83063 v -3.66126 h -2.74595 v 3.66126 z m 10.06847,-5.49189 v -0.91531 h 1.83063 v 0.91531 z m -1.83063,5.49189 v -0.91531 h 1.83063 v -2.74595 h -0.91532 v -0.91531 h 2.74595 v 3.66126 h 1.83063 v 0.91531 z m 6.4072,0 v -0.91531 h 4.57658 v -0.91532 h -3.66126 v -0.91531 h -0.91532 v -0.91532 h 0.91532 v -0.91531 h 4.57657 v 0.91531 h -3.66126 v 0.91532 h 3.66126 v 0.91531 h 0.91532 v 0.91532 h -0.91532 v 0.91531 z m 9.15315,-1.83063 v -4.57657 h 2.74594 v 2.74594 h -0.91531 v 1.83063 z m 0,1.83063 v -0.91531 h 1.83063 v 0.91531 z"
         id="path2" />
    </g>
    <g
       id="text149"
       style="font-style:italic;font-weight:bold;font-size:4.23333px;font-family:Arial;-inkscape-font-specification:'Arial Bold Italic';text-align:center;text-anchor:middle;stroke-width:0.518961;stroke-miterlimit:22.9256;stroke-dasharray:2.07584, 4.1517"
       aria-label="Made with love at&#10;thirtythreedown.com">
      <path
         style="font-style:normal;font-weight:normal;font-family:'Press Start 2P';-inkscape-font-specification:'Press Start 2P';stroke-width:0.518962"
         d="m 304.36814,213.04217 v -3.70416 h 1.05833 v 0.52916 h 0.52917 v 0.52917 h 0.52916 v -0.52917 h 0.52917 v -0.52916 h 1.05833 v 3.70416 h -1.05833 v -2.11667 h -0.52917 v 1.05834 h -0.52916 v -1.05834 h -0.52917 v 2.11667 z m 4.76249,0 V 212.513 h -0.52916 v -0.52916 h 0.52916 v -0.52917 h 2.11667 v -0.52917 h -2.11667 v -0.52916 h 2.64583 v 0.52916 h 0.52917 v 2.11667 z m 0.52917,-0.52917 h 1.5875 v -0.52916 h -1.5875 z m 3.70416,0.52917 V 212.513 h -0.52916 v -1.5875 h 0.52916 v -0.52916 h 2.11667 v -1.05833 h 1.05833 v 3.70416 z m 0.52917,-0.52917 h 1.5875 v -1.5875 h -1.5875 z m 3.70416,0.52917 V 212.513 h -0.52916 v -1.5875 h 0.52916 v -0.52916 h 2.64583 v 0.52916 h 0.52917 v 1.05834 h -2.64583 v 0.52916 h 2.11666 v 0.52917 z m 0.52917,-1.5875 h 1.5875 v -0.52917 h -1.5875 z m 8.46666,1.05833 h 0.52916 v 0.52917 h -1.05833 V 212.513 h -0.52916 v -2.11666 h 1.05833 z m 1.05833,-2.11666 v 2.11666 h -0.52917 v -2.11666 z m 1.5875,0 v 2.11666 h -0.52917 v 0.52917 h -1.05833 V 212.513 h 0.52917 v -2.11666 z m 2.11666,-0.52917 v -0.52916 h 1.05834 v 0.52916 z m -1.05833,3.175 V 212.513 h 1.05833 v -1.5875 h -0.52916 v -0.52916 h 1.5875 v 2.11666 h 1.05833 v 0.52917 z m 5.29166,0 v -2.11667 h -1.05833 v -0.52916 h 1.05833 v -1.05833 h 1.05834 v 1.05833 h 1.05833 v 0.52916 h -1.05833 v 2.11667 z m 2.64584,0 v -3.70416 h 1.05833 v 1.05833 h 2.11666 v 0.52916 h 0.52917 v 2.11667 h -1.05833 v -2.11667 h -1.5875 v 2.11667 z m 8.99582,0 V 212.513 h 1.05833 v -2.64583 h -0.52916 v -0.52916 h 1.5875 v 3.17499 h 1.05833 v 0.52917 z m 4.23333,0 V 212.513 h -0.52917 v -1.5875 h 0.52917 v -0.52916 h 2.64583 v 0.52916 h 0.52917 v 1.5875 h -0.52917 v 0.52917 z m 0.52917,-0.52917 h 1.5875 v -1.5875 h -1.5875 z m 4.76249,0.52917 V 212.513 h -0.52916 v -0.52916 h -0.52917 v -1.5875 h 1.05833 v 1.5875 h 1.05834 v -1.5875 h 1.05833 v 1.5875 h -0.52917 v 0.52916 h -0.52916 v 0.52917 z m 3.175,0 V 212.513 h -0.52917 v -1.5875 h 0.52917 v -0.52916 h 2.64583 v 0.52916 h 0.52917 v 1.05834 h -2.64583 v 0.52916 h 2.11666 v 0.52917 z m 0.52917,-1.5875 h 1.5875 v -0.52917 h -1.5875 z m 7.93749,1.5875 V 212.513 h -0.52917 v -0.52916 h 0.52917 v -0.52917 h 2.11667 v -0.52917 h -2.11667 v -0.52916 h 2.64583 v 0.52916 h 0.52917 v 2.11667 z m 0.52917,-0.52917 h 1.5875 v -0.52916 h -1.5875 z m 4.76249,0.52917 v -2.11667 h -1.05833 v -0.52916 h 1.05833 v -1.05833 h 1.05833 v 1.05833 h 1.05834 v 0.52916 h -1.05834 v 2.11667 z"
         id="path3" />
      <path
         style="font-style:normal;font-weight:normal;font-family:'Press Start 2P';-inkscape-font-specification:'Press Start 2P';stroke-width:0.518962"
         d="m 301.72231,219.28314 v -2.11667 h -1.05834 v -0.52916 h 1.05834 v -1.05834 h 1.05833 v 1.05834 h 1.05833 v 0.52916 h -1.05833 v 2.11667 z m 2.64583,0 v -3.70417 h 1.05833 v 1.05834 h 2.11666 v 0.52916 h 0.52917 v 2.11667 h -1.05833 v -2.11667 h -1.5875 v 2.11667 z m 5.82083,-3.175 v -0.52917 h 1.05833 v 0.52917 z m -1.05834,3.175 v -0.52917 h 1.05834 v -1.5875 h -0.52917 v -0.52916 h 1.5875 v 2.11666 h 1.05833 v 0.52917 z m 5.29167,-2.11667 h 0.52916 v 0.52917 h -0.52916 v 1.5875 h -1.05834 v -2.64583 h 1.05834 z m 2.11666,-0.52916 v 0.52916 h -1.5875 v -0.52916 z m 2.11667,2.64583 v -2.11667 h -1.05834 v -0.52916 h 1.05834 v -1.05834 h 1.05833 v 1.05834 h 1.05833 v 0.52916 h -1.05833 v 2.11667 z m 3.17499,0.52916 v -0.52916 h 2.11667 v -0.52917 h -2.11667 v -0.52917 h -0.52916 v -1.58749 h 1.05833 v 1.58749 h 1.5875 v -1.58749 h 1.05833 v 2.64583 h -0.52917 v 0.52916 z m 5.29166,-0.52916 v -2.11667 h -1.05833 v -0.52916 h 1.05833 v -1.05834 h 1.05834 v 1.05834 h 1.05833 v 0.52916 h -1.05833 v 2.11667 z m 2.64584,0 v -3.70417 h 1.05833 v 1.05834 h 2.11666 v 0.52916 h 0.52917 v 2.11667 h -1.05833 v -2.11667 h -1.5875 v 2.11667 z m 5.82082,-2.11667 h 0.52917 v 0.52917 h -0.52917 v 1.5875 h -1.05833 v -2.64583 h 1.05833 z m 2.11667,-0.52916 v 0.52916 h -1.5875 v -0.52916 z m 1.05833,2.64583 v -0.52917 h -0.52916 v -1.5875 h 0.52916 v -0.52916 h 2.64583 v 0.52916 h 0.52917 v 1.05833 h -2.64583 v 0.52917 h 2.11666 v 0.52917 z m 0.52917,-1.5875 h 1.5875 v -0.52917 h -1.5875 z m 3.70416,1.5875 v -0.52917 h -0.52916 v -1.5875 h 0.52916 v -0.52916 h 2.64583 v 0.52916 h 0.52917 v 1.05833 h -2.64583 v 0.52917 h 2.11666 v 0.52917 z m 0.52917,-1.5875 h 1.5875 v -0.52917 h -1.5875 z m 3.70416,1.5875 v -0.52917 h -0.52916 v -1.5875 h 0.52916 v -0.52916 h 2.11667 v -1.05834 h 1.05833 v 3.70417 z m 0.52917,-0.52917 h 1.5875 v -1.5875 h -1.5875 z m 3.70416,0.52917 v -0.52917 h -0.52917 v -1.5875 h 0.52917 v -0.52916 h 2.64583 v 0.52916 h 0.52917 v 1.5875 h -0.52917 v 0.52917 z m 0.52917,-0.52917 h 1.5875 v -1.5875 h -1.5875 z m 4.23333,0 h 0.52916 v 0.52917 h -1.05833 v -0.52917 h -0.52917 v -2.11666 h 1.05834 z m 1.05833,-2.11666 v 2.11666 h -0.52917 v -2.11666 z m 1.5875,0 v 2.11666 h -0.52917 v 0.52917 h -1.05833 v -0.52917 h 0.52917 v -2.11666 z m 0.52916,2.64583 v -2.64583 h 3.175 v 0.52916 h 0.52917 v 2.11667 h -1.05833 v -2.11667 h -1.5875 v 2.11667 z m 5.29167,0 v -1.05834 h 1.05833 v 1.05834 z m 3.70416,0 v -0.52917 h -0.52917 v -1.5875 h 0.52917 v -0.52916 h 3.175 v 0.52916 h -2.64583 v 1.5875 h 2.64583 v 0.52917 z m 4.23333,0 v -0.52917 h -0.52917 v -1.5875 h 0.52917 v -0.52916 h 2.64583 v 0.52916 h 0.52917 v 1.5875 h -0.52917 v 0.52917 z m 0.52917,-0.52917 h 1.58749 v -1.5875 h -1.58749 z m 3.17499,0.52917 v -2.64583 h 3.175 v 0.52916 h 0.52917 v 2.11667 h -1.05834 v -2.11667 h -0.52916 v 2.11667 h -1.05833 v -2.11667 h -0.52917 v 2.11667 z"
         id="path4" />
    </g>
    <path
       id="rect109"
       style="fill:#969696;stroke-width:1.37298;stroke-miterlimit:22.9256"
       d="m 294.47751,137.3604 h 10.37837 v 10.37837 h -10.37837 z" />
    <path
       id="rect110"
       style="fill:#969696;stroke-width:1.37298;stroke-miterlimit:22.9256"
       d="m 294.47751,152.92796 h 10.37837 v 10.37837 h -10.37837 z" />
    <path
       id="rect111"
       style="fill:#969696;stroke-width:1.37298;stroke-miterlimit:22.9256"
       d="m 294.47751,168.49553 h 10.37837 v 10.37837 h -10.37837 z" />
    <path
       id="rect112"
       style="fill:#969696;stroke-width:1.37298;stroke-miterlimit:22.9256"
       d="m 310.04514,137.3604 h 79.4983 v 10.37837 h -79.4983 z" />
    <path
       id="rect114"
       style="fill:#969696;stroke-width:1.37298;stroke-miterlimit:22.9256"
       d="m 310.04514,152.92796 h 79.4983 v 10.37837 h -79.4983 z" />
    <path
       id="rect116"
       style="fill:#969696;stroke-width:1.37298;stroke-miterlimit:22.9256"
       d="m 310.04514,168.49553 h 79.4983 v 10.37837 h -79.4983 z" />
    <g
       id="rect118"
       style="opacity:1">
      <path
         style="baseline-shift:baseline;display:inline;overflow:visible;vector-effect:none;fill:#ffffff;stroke-miterlimit:22.9256;enable-background:accumulate;stop-color:#000000;stop-opacity:1"
         d="m 292.36081,135.24374 h 10.37837 v 10.37837 h -10.37837 z"
         id="path139" />
      <path
         style="baseline-shift:baseline;display:inline;overflow:visible;vector-effect:none;stroke-miterlimit:22.9256;enable-background:accumulate;stop-color:#000000;stop-opacity:1"
         d="m 291.67383,134.55664 v 11.75195 h 11.75195 v -11.75195 z m 1.37304,1.37305 h 9.00586 v 9.00586 h -9.00586 z"
         id="path140" />
    </g>
    <g
       id="rect120"
       style="opacity:1">
      <path
         style="baseline-shift:baseline;display:inline;overflow:visible;vector-effect:none;fill:#ffffff;stroke-miterlimit:22.9256;enable-background:accumulate;stop-color:#000000;stop-opacity:1"
         d="m 292.36081,150.81129 h 10.37837 v 10.37837 h -10.37837 z"
         id="path141" />
      <path
         style="baseline-shift:baseline;display:inline;overflow:visible;vector-effect:none;stroke-miterlimit:22.9256;enable-background:accumulate;stop-color:#000000;stop-opacity:1"
         d="m 291.67383,150.125 v 11.75195 h 11.75195 V 150.125 Z m 1.37304,1.37305 h 9.00586 v 9.00586 h -9.00586 z"
         id="path142" />
    </g>
    <g
       id="rect122"
       style="opacity:1">
      <path
         style="baseline-shift:baseline;display:inline;overflow:visible;vector-effect:none;fill:#ffffff;stroke-miterlimit:22.9256;enable-background:accumulate;stop-color:#000000;stop-opacity:1"
         d="m 292.36081,166.37885 h 10.37837 v 10.37837 h -10.37837 z"
         id="path143" />
      <path
         style="baseline-shift:baseline;display:inline;overflow:visible;vector-effect:none;stroke-miterlimit:22.9256;enable-background:accumulate;stop-color:#000000;stop-opacity:1"
         d="m 291.67383,165.69141 v 11.75195 h 11.75195 v -11.75195 z m 1.37304,1.37304 h 9.00586 v 9.00586 h -9.00586 z"
         id="path144" />
    </g>
    <g
       id="rect124"
       style="opacity:1">
      <path
         style="baseline-shift:baseline;display:inline;overflow:visible;vector-effect:none;fill:#ffffff;stroke-miterlimit:22.9256;enable-background:accumulate;stop-color:#000000;stop-opacity:1"
         d="m 307.92844,135.24374 h 79.4983 v 10.37837 h -79.4983 z"
         id="path145" />
      <path
         style="baseline-shift:baseline;display:inline;overflow:visible;vector-effect:none;stroke-miterlimit:22.9256;enable-background:accumulate;stop-color:#000000;stop-opacity:1"
         d="m 307.24219,134.55664 v 11.75195 h 80.87109 v -11.75195 z m 1.37304,1.37305 h 78.125 v 9.00586 h -78.125 z"
         id="path146" />
    </g>
    <g
       id="rect125"
       style="opacity:1">
      <path
         style="baseline-shift:baseline;display:inline;overflow:visible;vector-effect:none;fill:#ffffff;stroke-miterlimit:22.9256;enable-background:accumulate;stop-color:#000000;stop-opacity:1"
         d="m 307.92844,150.81129 h 79.4983 v 10.37837 h -79.4983 z"
         id="path147" />
      <path
         style="baseline-shift:baseline;display:inline;overflow:visible;vector-effect:none;stroke-miterlimit:22.9256;enable-background:accumulate;stop-color:#000000;stop-opacity:1"
         d="m 307.24219,150.125 v 11.75195 h 80.87109 V 150.125 Z m 1.37304,1.37305 h 78.125 v 9.00586 h -78.125 z"
         id="path148" />
    </g>
    <g
       id="rect126"
       style="opacity:1">
      <path
         style="baseline-shift:baseline;display:inline;overflow:visible;vector-effect:none;fill:#ffffff;stroke-miterlimit:22.9256;enable-background:accumulate;stop-color:#000000;stop-opacity:1"
         d="m 307.92844,166.37885 h 79.4983 v 10.37837 h -79.4983 z"
         id="path149" />
      <path
         style="baseline-shift:baseline;display:inline;overflow:visible;vector-effect:none;stroke-miterlimit:22.9256;enable-background:accumulate;stop-color:#000000;stop-opacity:1"
         d="m 307.24219,165.69141 v 11.75195 h 80.87109 v -11.75195 z m 1.37304,1.37304 h 78.125 v 9.00586 h -78.125 z"
         id="path150" />
    </g>
  </g>
</svg>
